<svg width="509" height="413" viewBox="0 0 509 413" fill="none" xmlns="http://www.w3.org/2000/svg">

    <path d="M140.036 193.397L124.52 212.563L175.023 262.153L181.412 260.632L196.015 267.934L202.708 263.979L206.663 266.109L235.565 243.595L245.909 226.254L249.56 207.391L198.753 187.616H175.023L140.036 193.397Z" fill="black" stroke="white" stroke-width="2" area="7"/>

    <path d="M264.45 295.315L286.354 232.339V231.73L264.45 211.955L254.41 207.696L250.151 225.95L238.894 244.812L209.079 266.717L264.45 295.315Z" fill="black" stroke="white" stroke-width="2" area="6"/>

    <path d="M425.841 361.003L351.608 277.643L337.005 299.852L312.058 312.934L284.372 307.458L276.767 336.056L281.33 354.918V367.696L286.806 390.21L288.936 405.725L288.023 409.985H298.671L312.058 401.77L329.703 405.725L358.91 401.77L384.465 383.212L425.841 361.003Z" fill="black" stroke="white" stroke-width="2" area="13"/>

    <path d="M385.96 245.698L370.748 239.918L362.534 266.386L354.015 264.561L352.798 270.341L430.986 359.178L463.844 339.098L457.455 329.667L478.447 316.281L492.137 319.627L501.873 294.376V280.99L506.741 265.474L451.674 258.476L385.96 245.698Z" fill="black" stroke="white" stroke-width="2" area="12"/>

    <path d="M305.374 193.388L315.109 162.964L340.969 171.179L347.054 176.959L351.009 188.824L354.355 202.211L358.31 223.507L323.019 200.689L305.374 193.388Z" fill="black" stroke="white" stroke-width="2" area="3"/>

    <path d="M229.785 138.478V98.3193L143.382 125.7L135.168 142.433L142.774 160.079L149.467 179.246L154.03 187.764L175.023 184.113H199.97L216.398 190.502L221.875 174.074L227.351 163.73L233.74 160.991L227.351 150.648L229.785 138.478Z" fill="black" stroke="white" stroke-width="2" area="8"/>

    <path d="M97.1387 124.197L134.255 139.409L142.774 122.067L230.089 94.0777L230.393 89.8184L225.221 76.4322L234.957 9.50073L210.314 10.4134L178.673 24.7124L123.303 59.6993L95.3133 87.6888L84.0566 106.856L80.1016 119.938L98.9641 118.112L97.1387 124.197Z" fill="black" stroke="white" stroke-width="2" area="17"/>

    <path d="M229.61 73.4076L239.346 6.47621H239.954L281.634 5.56351L324.531 1L362.561 1.30423L364.994 38.4208L346.74 81.6219L326.053 82.2304L303.235 86.1855L270.682 95.3125L246.343 85.8812L234.478 91.0532L235.087 86.7939L229.61 73.4076Z" fill="black" stroke="white" stroke-width="2" area="18"/>

    <path d="M368.175 42.9578L365.742 5.537L394.644 4.32007L421.112 6.75394L438.453 19.836L447.581 35.6561L453.665 55.4313L454.274 76.7277L456.099 93.7648L469.181 105.021L484.697 107.455L490.477 119.016L476.483 126.014L460.358 131.794L439.975 133.011L432.369 130.273L390.689 146.093L371.522 121.146L366.046 96.1987V90.4182L350.226 85.5505L368.175 42.9578Z" fill="black" stroke="white" stroke-width="2" area="19"/>

    <path d="M387.056 148.666L388.881 150.795L415.958 189.433L421.738 209.512L427.823 211.338L437.254 221.682L445.164 238.11L447.903 249.367L446.99 254.235L380.058 241.457L364.238 234.764L353.59 191.562L348.722 176.655L342.942 171.179L387.056 148.666Z" fill="black" stroke="white" stroke-width="2" area="11"/>

    <path d="M300.054 90.879L301.271 154.464L274.498 148.988L236.469 159.027L229.776 148.379L232.21 135.906V95.4425L244.075 90.2705L268.718 99.7018L300.054 90.879Z" fill="black" stroke="white" stroke-width="2" area="9"/>

    <path d="M314.897 160.542L302.728 156.283L275.043 150.807L236.405 160.542L247.358 171.19L295.426 185.794L307.596 183.36L314.897 160.542Z" fill="black" stroke="white" stroke-width="2" area="2"/>

    <path d="M245.9 172.405L234.339 161.756L229.776 163.582L223.995 173.621L218.519 189.746L262.937 208.304L287.276 230.209L306.443 184.574L294.273 187.312L245.9 172.405Z" fill="black" stroke="white" stroke-width="2" area="1"/>

    <path d="M364.09 238.11L360.135 226.549L322.715 202.211L305.069 195.822L288.336 231.721L305.069 239.631L312.371 240.544L329.104 251.497L338.839 258.19L346.141 265.796L347.358 261.536L356.485 263.362L364.09 238.11Z" fill="black" stroke="white" stroke-width="2" area="4"/>

    <path d="M266.892 411.515L283.929 408.472L284.842 402.692L282.712 389.914L277.236 365.576V353.71L272.368 333.935L279.974 305.033L262.329 300.165L224.299 280.999L220.04 295.906L210.609 299.253L190.834 328.459L165.886 357.97L156.151 371.052L226.733 391.435L236.469 398.737L266.892 411.515Z" fill="black" stroke="white" stroke-width="2" area="14"/>

    <path d="M96.2349 244.638L122.399 217.257L173.814 268.368L178.682 265.63L189.939 273.236H195.719L202.108 270.194L219.754 281.146L215.799 295.445L206.063 299.096L185.68 327.998L150.388 371.808L137.306 368.157L81.0232 336.516L69.4623 323.739L57.9014 327.998L44.5151 323.739L96.2349 244.638Z" fill="black" stroke="white" stroke-width="2" area="15"/>

    <path d="M302.94 156.732L341.273 169.206L385.083 146.997L366.829 123.266L361.352 98.0151V92.5388L346.141 87.9753L344.924 88.5838L323.932 89.1923L302.027 93.1473L302.94 156.732Z" fill="black" stroke="white" stroke-width="2" area="10"/>

    <path d="M474.702 129.755L488.859 122.829L493.98 154.749L500.607 212.868L501.812 244.186L500.306 260.448L449.7 253.823L450.001 248.703L447.591 237.561L439.157 220.397L429.517 210.158L424.095 208.652L418.673 189.38L390.659 149.028L430.722 133.971L438.253 136.38L457.833 135.477L474.702 129.755Z" fill="black" stroke="white" stroke-width="2" area="20"/>

    <path d="M334.58 295.767L348.879 272.645L334.58 258.042L310.241 242.222H303.852L286.207 233.399L263.998 296.984L282.252 303.068L310.241 308.24L334.58 295.767Z" fill="black" stroke="white" stroke-width="2" area="5"/>

    <path d="M9.13584 264.332H23.4075L43.9231 218.674L76.0343 152.012L96.8472 128.878L132.824 144.402L150.961 188.235L135.797 191.279L92.982 240.894L43.9231 319.427L23.4075 315.774L4.97327 296.902L2 274.073L9.13584 264.332Z" fill="black" stroke="white" stroke-width="2" area="16"/>
    </svg>